<svg width="44" height="41" viewBox="0 0 44 41" fill="none" xmlns="http://www.w3.org/2000/svg">
<path d="M44 18.5C44 17.4391 43.5786 16.4217 42.8284 15.6716C42.0783 14.9214 41.0609 14.5 40 14.5H27.36L29.28 5.36C29.32 5.16 29.34 4.94 29.34 4.72C29.34 3.9 29 3.14 28.46 2.6L26.34 0.5L13.18 13.66C12.44 14.4 12 15.4 12 16.5V36.5C12 37.5609 12.4214 38.5783 13.1716 39.3284C13.9217 40.0786 14.9391 40.5 16 40.5H34C35.66 40.5 37.08 39.5 37.68 38.06L43.72 23.96C43.9 23.5 44 23.02 44 22.5V18.5ZM0 40.5H8V16.5H0V40.5Z" fill="white"/>
</svg>
