<svg width="21" height="21" viewBox="0 0 21 21" fill="none" xmlns="http://www.w3.org/2000/svg">
<path fill-rule="evenodd" clip-rule="evenodd" d="M10.5 0.911377C7.784 0.911377 7.444 0.923377 6.377 0.971377C5.313 1.02038 4.586 1.18938 3.95 1.43638C3.28249 1.68722 2.67775 2.08071 2.178 2.58938C1.66936 3.08915 1.27587 3.69388 1.025 4.36138C0.778 4.99738 0.609 5.72438 0.56 6.78838C0.511 7.85538 0.5 8.19538 0.5 10.9114C0.5 13.6274 0.511 13.9674 0.56 15.0344C0.609 16.0984 0.778 16.8254 1.025 17.4614C1.2759 18.1289 1.66938 18.7336 2.178 19.2334C2.67779 19.742 3.28252 20.1355 3.95 20.3864C4.586 20.6334 5.313 20.8024 6.377 20.8514C7.444 20.8994 7.784 20.9114 10.5 20.9114C13.216 20.9114 13.556 20.8994 14.623 20.8514C15.687 20.8024 16.414 20.6334 17.05 20.3864C17.7175 20.1355 18.3222 19.742 18.822 19.2334C19.3306 18.7336 19.7241 18.1289 19.975 17.4614C20.222 16.8254 20.391 16.0984 20.44 15.0344C20.488 13.9674 20.5 13.6274 20.5 10.9114C20.5 8.19538 20.488 7.85538 20.44 6.78838C20.391 5.72438 20.222 4.99738 19.975 4.36138C19.7241 3.69388 19.3306 3.08915 18.822 2.58938C18.3222 2.08071 17.7175 1.68722 17.05 1.43638C16.414 1.18938 15.687 1.02038 14.623 0.971377C13.556 0.923377 13.216 0.911377 10.5 0.911377ZM10.5 2.71338C13.17 2.71338 13.486 2.72338 14.54 2.77138C15.516 2.81638 16.045 2.97838 16.398 3.11538C16.864 3.29738 17.198 3.51438 17.548 3.86338C17.898 4.21338 18.114 4.54738 18.296 5.01338C18.432 5.36638 18.596 5.89538 18.64 6.87038C18.688 7.92538 18.698 8.24038 18.698 10.9114C18.698 13.5814 18.688 13.8974 18.64 14.9514C18.595 15.9274 18.432 16.4564 18.296 16.8094C18.1357 17.2438 17.8801 17.6367 17.548 17.9594C17.198 18.3094 16.864 18.5254 16.398 18.7074C16.045 18.8434 15.516 19.0074 14.541 19.0514C13.487 19.0994 13.171 19.1094 10.5 19.1094C7.83 19.1094 7.513 19.0994 6.46 19.0514C5.484 19.0064 4.955 18.8434 4.602 18.7074C4.16758 18.5471 3.77462 18.2915 3.452 17.9594C3.11986 17.6368 2.86426 17.2438 2.704 16.8094C2.567 16.4564 2.404 15.9274 2.36 14.9524C2.312 13.8974 2.302 13.5824 2.302 10.9114C2.302 8.24138 2.312 7.92538 2.36 6.87138C2.405 5.89538 2.567 5.36638 2.704 5.01338C2.886 4.54738 3.103 4.21338 3.452 3.86338C3.802 3.51338 4.136 3.29738 4.602 3.11538C4.955 2.97838 5.484 2.81538 6.459 2.77138C7.514 2.72338 7.829 2.71338 10.5 2.71338ZM10.5 14.2444C9.61603 14.2444 8.76827 13.8932 8.14321 13.2682C7.51815 12.6431 7.167 11.7953 7.167 10.9114C7.167 10.0274 7.51815 9.17965 8.14321 8.55459C8.76827 7.92953 9.61603 7.57838 10.5 7.57838C11.384 7.57838 12.2317 7.92953 12.8568 8.55459C13.4818 9.17965 13.833 10.0274 13.833 10.9114C13.833 11.7953 13.4818 12.6431 12.8568 13.2682C12.2317 13.8932 11.384 14.2444 10.5 14.2444ZM10.5 5.77638C9.82566 5.77638 9.15793 5.9092 8.53492 6.16726C7.91191 6.42531 7.34584 6.80356 6.86901 7.28038C6.39218 7.75721 6.01394 8.32329 5.75588 8.9463C5.49782 9.5693 5.365 10.237 5.365 10.9114C5.365 11.5857 5.49782 12.2534 5.75588 12.8765C6.01394 13.4995 6.39218 14.0655 6.86901 14.5424C7.34584 15.0192 7.91191 15.3974 8.53492 15.6555C9.15793 15.9136 9.82566 16.0464 10.5 16.0464C11.8619 16.0464 13.168 15.5054 14.131 14.5424C15.094 13.5794 15.635 12.2733 15.635 10.9114C15.635 9.54949 15.094 8.24338 14.131 7.28038C13.168 6.31738 11.8619 5.77638 10.5 5.77638ZM17.038 5.57338C17.038 5.73096 17.007 5.88701 16.9467 6.0326C16.8863 6.17819 16.798 6.31047 16.6865 6.42191C16.5751 6.53334 16.4428 6.62173 16.2972 6.68203C16.1516 6.74234 15.9956 6.77338 15.838 6.77338C15.6804 6.77338 15.5244 6.74234 15.3788 6.68203C15.2332 6.62173 15.1009 6.53334 14.9895 6.42191C14.878 6.31047 14.7897 6.17819 14.7293 6.0326C14.669 5.88701 14.638 5.73096 14.638 5.57338C14.638 5.25512 14.7644 4.94989 14.9895 4.72485C15.2145 4.49981 15.5197 4.37338 15.838 4.37338C16.1563 4.37338 16.4615 4.49981 16.6865 4.72485C16.9116 4.94989 17.038 5.25512 17.038 5.57338Z" fill="#E9E9ED"/>
</svg>
