<svg width="25" height="25" viewBox="0 0 25 25" fill="none" xmlns="http://www.w3.org/2000/svg">
<path d="M5.87214 24.9113H0.896429V8.88812H5.87214V24.9113ZM3.38161 6.7024C1.79054 6.7024 0.5 5.38454 0.5 3.79347C0.5 3.02922 0.803597 2.29627 1.344 1.75587C1.88441 1.21546 2.61736 0.911865 3.38161 0.911865C4.14586 0.911865 4.8788 1.21546 5.41921 1.75587C5.95962 2.29627 6.26321 3.02922 6.26321 3.79347C6.26321 5.38454 4.97214 6.7024 3.38161 6.7024ZM24.4946 24.9113H19.5296V17.1113C19.5296 15.2524 19.4921 12.8685 16.9427 12.8685C14.3557 12.8685 13.9593 14.8881 13.9593 16.9774V24.9113H8.98893V8.88812H13.7611V11.0738H13.8307C14.495 9.8149 16.1177 8.48633 18.5386 8.48633C23.5743 8.48633 24.5 11.8024 24.5 16.1095V24.9113H24.4946Z" fill="#E9E9ED"/>
</svg>
