<svg width="24" height="20" viewBox="0 0 24 20" fill="none" xmlns="http://www.w3.org/2000/svg">
<path d="M21.8328 5.02313C21.848 5.23631 21.848 5.44955 21.848 5.66274C21.848 12.1652 16.8988 19.6576 7.8531 19.6576C5.06629 19.6576 2.47748 18.8505 0.299805 17.4495C0.695758 17.4952 1.07643 17.5104 1.48762 17.5104C3.78707 17.5104 5.90385 16.7338 7.59421 15.4089C5.43177 15.3632 3.61959 13.947 2.99521 11.9978C3.2998 12.0434 3.60435 12.0739 3.92418 12.0739C4.36579 12.0739 4.80744 12.0129 5.21859 11.9064C2.96479 11.4495 1.27438 9.46983 1.27438 7.07897V7.01808C1.92918 7.38356 2.69066 7.61199 3.49771 7.64241C2.17284 6.75914 1.30485 5.25155 1.30485 3.54596C1.30485 2.63227 1.54846 1.79471 1.97488 1.06374C4.39621 4.0485 8.03582 5.9977 12.117 6.21094C12.0409 5.84546 11.9952 5.46478 11.9952 5.08406C11.9952 2.37338 14.1881 0.165283 16.9139 0.165283C18.3302 0.165283 19.6093 0.75919 20.5078 1.71858C21.6195 1.50539 22.6855 1.09421 23.6297 0.530768C23.2641 1.67292 22.4875 2.63231 21.4672 3.24141C22.4571 3.13486 23.4165 2.86069 24.2997 2.48002C23.6298 3.4546 22.7922 4.32258 21.8328 5.02313Z" fill="#E9E9ED"/>
</svg>
